<?xml version="1.0" standalone="no"?>
<!DOCTYPE svg PUBLIC "-//W3C//DTD SVG 20010904//EN"
 "http://www.w3.org/TR/2001/REC-SVG-20010904/DTD/svg10.dtd">
<svg version="1.0" xmlns="http://www.w3.org/2000/svg"
 width="512.000000pt" height="512.000000pt" viewBox="0 0 512.000000 512.000000"
 preserveAspectRatio="xMidYMid meet">

<g transform="translate(0.000000,512.000000) scale(0.100000,-0.100000)"
fill="#000000" stroke="none">
<path d="M202 5095 c-65 -30 -140 -104 -172 -170 l-25 -50 -3 -2295 -2 -2295
30 -62 c38 -77 119 -153 198 -185 l57 -23 2239 -3 c2444 -2 2302 -6 2402 53
59 34 120 102 152 165 l27 55 0 2285 0 2285 -27 57 c-36 77 -98 141 -171 178
l-60 30 -2296 0 -2296 0 -53 -25z m1082 -695 c113 -43 213 -144 256 -258 112
-298 -119 -610 -437 -590 -321 21 -507 350 -362 640 53 106 180 203 299 228
65 13 179 4 244 -20z m2466 -1159 c326 -82 499 -293 578 -705 12 -68 16 -219
19 -923 l4 -843 -375 0 -376 0 0 583 c-1 822 -11 956 -78 1080 -71 131 -220
193 -401 167 -196 -28 -308 -141 -352 -355 -17 -83 -19 -146 -19 -782 l0 -693
-380 0 -380 0 0 1220 0 1220 360 0 360 0 0 -165 c0 -91 3 -165 8 -165 4 0 25
28 47 61 99 150 281 267 490 315 93 21 385 12 495 -15z m-2240 -1251 l0 -1220
-380 0 -380 0 0 1220 0 1220 380 0 380 0 0 -1220z"/>
</g>
</svg>
