<?xml version="1.0" standalone="no"?>
<!DOCTYPE svg PUBLIC "-//W3C//DTD SVG 20010904//EN"
 "http://www.w3.org/TR/2001/REC-SVG-20010904/DTD/svg10.dtd">
<svg version="1.0" xmlns="http://www.w3.org/2000/svg"
 width="48.000000pt" height="48.000000pt" viewBox="0 0 48.000000 48.000000"
 preserveAspectRatio="xMidYMid meet">

<g transform="translate(0.000000,48.000000) scale(0.100000,-0.100000)"
fill="#000000" stroke="none">
<path d="M12 388 c-17 -17 -17 -279 0 -296 17 -17 439 -17 456 0 17 17 17 279
0 296 -17 17 -439 17 -456 0z m443 -148 l0 -135 -215 0 -215 0 -3 124 c-1 69
0 131 2 138 4 11 49 13 218 11 l213 -3 0 -135z"/>
<path d="M60 313 c0 -5 41 -34 90 -67 l89 -58 91 58 c80 52 105 74 83 74 -5 0
-42 -23 -83 -50 -41 -27 -82 -50 -90 -50 -8 0 -49 23 -90 50 -74 50 -90 57
-90 43z"/>
<path d="M98 189 c-43 -28 -60 -49 -41 -49 12 0 103 62 103 71 0 15 -13 10
-62 -22z"/>
<path d="M320 211 c0 -9 91 -71 103 -71 20 0 1 21 -41 49 -52 33 -62 37 -62
22z"/>
</g>
</svg>
